<svg xmlns="http://www.w3.org/2000/svg" xmlns:xlink="http://www.w3.org/1999/xlink" version="1.1" id="Layer_1" x="0px" y="0px" viewBox="0 0 24 24" enable-background="new 0 0 24 24" xml:space="preserve">
<path fill="#5f8ab9" d="M20,24H4c-2.2,0-4-1.8-4-4V4c0-2.2,1.8-4,4-4h16c2.2,0,4,1.8,4,4v16C24,22.2,22.2,24,20,24z"/>
<path fill="#FFFFFF" d="M20.6,5.7c-0.5-0.5-1.3-0.5-1.8,0L9,15.5l-2.4-3.2c-0.4-0.6-1.3-0.7-1.8-0.2h0c-0.6,0.4-0.7,1.3-0.2,1.8  l3.3,4.3c0.1,0.2,0.3,0.3,0.5,0.4c0,0,0,0,0,0c0.1,0,0.1,0,0.2,0.1c0,0,0,0,0.1,0c0,0,0.1,0,0.1,0c0,0,0.1,0,0.1,0c0,0,0.1,0,0.1,0  c0.1,0,0.1,0,0.2,0c0,0,0,0,0.1,0c0.1,0,0.1,0,0.2-0.1c0,0,0,0,0,0c0.1-0.1,0.3-0.1,0.4-0.2L20.6,7.5C21.1,7,21.1,6.2,20.6,5.7z"/>
</svg>